# xmcd
# 
# Track frame offsets:
#	150
#	12541
#	24772
#	28811
#	39568
#	52189
#	59020
#	73610
#	80465
#	86984
#	91991
#
# Disc length: 1387 seconds
#
# Revision: 1
# Processed by: cddbd v1.4PL0 Copyright (c) Steve Scherf et al.
# Submitted via: Audio-CD-Archiv 2.10.446
#
DISCID=9305690b
DTITLE=Various Artist - Gruß aus Greimpersdorf
DYEAR=1900
DGENRE=country
TTITLE0=Die Greimpersdorfer - Greimpersdorferlied
TTITLE1=Alfred Bill - Der böhmische Taucher
TTITLE2=Johanna Wöginger - Lied über einen jungen Mann von 62 Jahren
TTITLE3=Willi Leimer - Da "Laga Schani"
TTITLE4=Krapfenbauer Annemarie, Raab Anna, Haslinger Astrid u. Andrea - Greimpersdorfer Heimatlied
TTITLE5=Johanna Wöginger - Was ich heut´ Nacht geträumt hab´ ...
TTITLE6=Alfred Bill - Da oide Taura der hod gsogt
TTITLE7=Willi Leimer - Seine Exzellenz
TTITLE8=Johanna Wöginger - Ein Hoch dem edlen Brautpaar
TTITLE9=Johanna Wöginger - Gstanzl´ (Dingl, Dingl, Dongl)
TTITLE10=Willi Leimer - Greimpersdorferlied (Instrumentalversion)
EXTD=
EXTT0=
EXTT1=
EXTT2=
EXTT3=
EXTT4=
EXTT5=
EXTT6=
EXTT7=
EXTT8=
EXTT9=
EXTT10=
PLAYORDER=
